<svg xmlns="http://www.w3.org/2000/svg" width="129" height="27" viewBox="0 0 129 27" xmlns:xlink="http://www.w3.org/1999/xlink"><defs><path id="a" d="M0 .14v21.165h93.82V.14H0z"/></defs><g fill="none" fill-rule="evenodd"><path fill="#0D92FF" d="M120.336 20.97l8.64-6.48-8.64-6.483"/><path fill="#002133" d="M28.04 13.345c0-1.528-.297-2.703-.892-3.526-.594-.825-1.446-1.236-2.555-1.236-1.07 0-1.903.41-2.497 1.234-.555.744-.832 1.92-.832 3.525 0 1.49.297 2.605.892 3.35.594.822 1.446 1.233 2.556 1.233 1.03 0 1.842-.41 2.436-1.234.595-.822.892-1.94.892-3.35zm-6.776 11.517c0 .548-.198 1.02-.594 1.41-.397.392-.872.588-1.427.588h-2.02V12.228c0-2.74.81-4.613 2.436-5.612 1.623-1 3.386-1.498 5.29-1.498.99 0 1.99.186 3 .558 1.01.373 1.813.91 2.407 1.616 1.19 1.528 1.784 3.487 1.784 5.877 0 2.465-.594 4.463-1.783 5.99-1.188 1.49-2.714 2.234-4.577 2.234-1.485 0-2.392-.166-3.178-.437-.58-.2-1.01-.354-1.337-.48v4.384zm87.733-3.892h-4.1v-9.99c0-.94-.29-1.623-.863-2.054-.575-.43-1.22-.647-1.932-.647-.713 0-1.348.215-1.902.646-.555.43-.832 1.116-.832 2.056v9.99h-4.16v-9.166c0-2.664.702-4.446 2.11-5.347 1.405-.9 2.96-1.39 4.665-1.47.91 0 1.803.1 2.675.293.87.198 1.664.59 2.378 1.177.594-.51 1.297-.872 2.11-1.087.812-.215 1.654-.343 2.526-.382 1.743 0 3.65.08 5.7 1.35 1.462.91 1.582 1.696 1.582 1.696V20.97h-2.35c-.593 0-1.078-.184-1.455-.557-.38-.372-.567-.852-.567-1.44V10.98c0-.94-.288-1.624-.862-2.055-.573-.43-1.217-.647-1.93-.647-.714 0-1.36.216-1.932.647-.576.43-.863 1.116-.863 2.056v9.992z"/><g transform="translate(0 .087)"><mask id="b" fill="#fff"><use xlink:href="#a"/></mask><path fill="#002133" d="M2.366 19.61c1.34 1.13 3.35 1.695 6.032 1.695 2.602 0 4.613-.545 6.032-1.636 1.42-1.17 2.13-2.81 2.13-4.914 0-.974-.193-1.872-.65-2.69-.42-.748-1.13-1.455-1.992-1.88-.545-.27-.877-.388-1.55-.59-.422-.13-.745-.233-1.22-.365-.54-.145-1.063-.296-1.863-.52-.337-.083-.943-.23-1.613-.403-2.287-.506-3.295-1.27-3.295-2.322 0-.78.295-1.383.887-1.812.512-.43 1.36-.643 2.543-.643 1.22 0 2.188.255 2.898.76.355.274.63.605.827.995.394.818.304 1.218.304 1.218l4.014.01c-.08-1.95-.79-3.528-2.13-4.736C12.42.687 10.567.14 8.16.14 5.6.14 3.647.666 2.307 1.718.967 2.81.297 4.31.297 6.22c0 1.092.217 1.977.59 2.69.394.752.883 1.414 1.656 1.87.648.384 2.118.97 4.022 1.346l.267.06.354.085c3.548.78 5.297 1.743 5.293 3.073-.005.818-.317 1.443-.95 1.87-.576.39-1.557.643-2.78.643-1.38 0-2.462-.272-3.25-.818-.75-.468-1.204-1.286-1.36-2.456H0c.118 2.223.906 3.9 2.366 5.03zm40.37-2.64c-.244.232-.505.4-.627.465-.486.254-1.46.304-2.13.304-1.026 0-1.796-.314-2.307-.938-.553-.584-.85-1.48-.887-2.69h10.23c.04-.077.06-.213.06-.41v-.642c0-2.57-.63-4.58-1.892-6.02-1.3-1.404-3.135-2.106-5.5-2.106-2.248 0-4.003.722-5.264 2.163-1.22 1.403-1.83 3.353-1.83 5.847 0 2.612.63 4.62 1.892 6.022 1.262 1.443 3.016 2.164 5.263 2.164 1.854 0 3.39-.448 4.614-1.345 1.22-.857 2.05-2.105 2.483-3.742l-3.555-.003c-.235.617-.45.833-.55.93zm-5.062-7.826c.552-.546 1.26-.82 2.13-.82.945 0 1.674.274 2.187.82.475.507.75 1.286.83 2.34H36.79c.038-1.015.334-1.794.887-2.34zm19.194 8.307c-.473.275-1.13.29-1.8.29-1.025 0-1.794-.312-2.306-.936-.71-.74-1.065-2.007-1.065-3.8 0-1.793.355-3.08 1.065-3.86.552-.545 1.26-.818 2.13-.818.945 0 1.675.273 2.188.82.196.194.393.487.59.876h4.14c-.315-1.13-.77-2.174-1.537-2.98-1.326-1.396-3.134-2.106-5.5-2.106-2.247 0-4.002.722-5.264 2.163-1.224 1.403-1.835 3.352-1.835 5.846 0 2.612.63 4.62 1.892 6.022 1.262 1.443 3.017 2.164 5.264 2.164 1.854 0 3.39-.448 4.614-1.345 1.222-.857 2.05-2.105 2.484-3.742l-3.9.012c-.148.435-.395 1.008-1.162 1.396zm10.57-.646v-7.36l2.418.007.005-4.106H67.44v-2.63c0-.546-.198-1.014-.592-1.404-.394-.39-.848-.586-1.36-.586h-2.13v17.19c0 1.793.76 2.748 2.278 2.865 0 0 1.685.083 1.802.084l.002-4.062zm6.758 4.034v-8.01c0-1.17.275-2.026.827-2.572.552-.546 1.4-.82 2.544-.82h1.36v-4.15h-.59c-1.065 0-2.1.137-3.106.41-1.004.272-1.882.7-2.63 1.285-.79.625-1.41 1.454-1.864 2.486-.453 1.034-.68 2.31-.68 3.83v7.542h4.14zM91.75 5.285c-.592 0-1.076.195-1.45.585-.375.39-.562.857-.562 1.403v7.952c0 .935-.286 1.618-.858 2.046-.57.43-1.212.645-1.922.645s-1.34-.214-1.892-.643c-.553-.427-.828-1.11-.828-2.045v-9.94h-4.14v9.12c0 2.69.7 4.465 2.1 5.322 1.4.857 2.947 1.323 4.642 1.402 1.735 0 3.33-.428 4.79-1.287 1.46-.856 2.19-2.67 2.19-5.437v-9.12h-2.07z" mask="url(#b)"/></g></g></svg>
