<svg xmlns="http://www.w3.org/2000/svg" viewBox="0 0 108.02 35.27"><defs><style>.cls-1{fill:#d71920;}</style></defs><path class="cls-1" d="M70.25 26.98V7.81h-4.43v20.31h4.44zm-30.52 0V7.81h-4.42v20.31h4.42zM53.96 7.41a6.45 6.45 0 0 0-5.09 2.24V7.82h-4.42v20.3h4.42V16.27c0-3.29 1.42-5.11 4-5.11 2.81 0 4 1.65 4 5.5v11.46h4.41v-11.6c.02-6-2.51-9.11-7.32-9.11zm22.7 3.86v11.35c0 3.7 2 5.9 5.39 5.9a10.91 10.91 0 0 0 3.08-.4l.53-3.52a9.07 9.07 0 0 1-2 .29c-1.84 0-2.59-.74-2.59-2.57v-11h5.05L84.8 7.87h-3.76V.52l-4.41 2.24v5.09h-3.21v3.45zM23.49 7.82h-2.08L19 11.27h4.5v16.85h4.42V11.26h4.51V7.81h-4.51v-2c0-1.49.62-2.09 2.12-2.09a9.58 9.58 0 0 1 2.39.34V.52a10.87 10.87 0 0 0-3.52-.54c-3.38 0-5.4 2.21-5.4 5.91zm84.53 0h-4.77l-7.13 12.93-4.85-12.94h-4.58l6.85 17.71-5.27 9.76h4.66zm-95.77 9.8l6.91-9.8h-5.04l-4.27 6.25-4.27-6.25H.51l6.9 9.8-7.39 10.5h5.07l4.75-7 9.87 14.11h4.86z"/></svg>
