<svg xmlns="http://www.w3.org/2000/svg" viewBox="0 0 1860.37 384.13"><defs><style>.cls-1{fill:#231f20;}.cls-2{fill:#0084d6;}</style></defs><path class="cls-1" d="M117.12 111.28C49.92 111.28 0 161.09 0 223.65s49.92 112.42 117.12 112.42 117.07-49.79 117.07-112.41-49.87-112.37-117.1-112.37m0 148.71a36.28 36.28 0 1 1 36.26-36.29 36.3 36.3 0 0 1-36.16 36.28" id="O"/><path class="cls-1" d="M393.84 111.08c-24.74 0-45.26 7.77-59.71 24.5a84.8 84.8 0 0 0 1.06-13.78l.06-3.56h-84.62v265.89h84.62v-71c14.39 15.84 34.5 23.2 58.59 23.2 54.61 0 97.56-47.27 97.56-112.64s-43-112.58-97.56-112.58m-24.17 149a36.29 36.29 0 1 1 36.28-36.28 36.27 36.27 0 0 1-36.28 36.28" id="P"/><path class="cls-1" d="M500.19 191.57h24.77v85.66c0 29 12.05 55.78 67.82 55.78a361.53 361.53 0 0 0 52-4.11v-71.24s-10.32.57-19.28.43c-16.39 0-15.94-8.91-15.94-14.73v-51.79h37.45v-73.33h-37.3V51.3h-84.73v66.94h-24.79z" id="T"/><g id="I"><path class="cls-1" d="M737.02 0a51.69 51.69 0 1 0 51.67 51.68A51.68 51.68 0 0 0 737.02 0M670.08 191.58h24.91v137.73h84.66V118.24H670.08v73.34z"/></g><path class="cls-1" d="M1068.96 114.65c-28.1 0-51.12 11.86-67.18 31.82-11.88-19.65-32.74-31.81-59.28-31.81a72.81 72.81 0 0 0-53.95 24.75 81.32 81.32 0 0 0 1.71-17.46v-3.71h-84.5v211.1h84.57V200.21c2.42-3.73 11-11.67 21.74-11.67 11.22 0 20.69 6.47 20.69 21.67v119.13h84.64V200.21c2.39-3.73 11-11.67 21.74-11.67 11.19 0 20.7 6.48 20.7 21.68v119.12h84.73V184.86c0-45.72-37.76-70.21-75.65-70.21" id="M"/><path class="cls-1" d="M1294.19 232.06c0 17.24-11.89 22.73-21.42 22.73-9.32 0-20.46-5.4-20.46-22.73V118.2h-84.76v124.63c0 44.12 33.43 89.95 105.22 89.95 72.22 0 105.36-45.83 106-89.95V118.2h-84.58z" id="U"/><path class="cls-1" d="M1664.98 114.65c-28.08 0-51.1 11.86-67.17 31.82-11.88-19.65-32.71-31.81-59.25-31.81a72.81 72.81 0 0 0-54 24.75 81.49 81.49 0 0 0 1.7-17.46v-3.71h-84.52v211.1h84.61V200.21c2.39-3.73 11-11.67 21.72-11.67 11.19 0 20.67 6.47 20.67 21.67v119.13h84.66V200.21c2.42-3.73 11-11.67 21.72-11.67 11.23 0 20.72 6.48 20.72 21.68v119.12h84.71V184.86c0-45.72-37.71-70.21-75.64-70.21" id="M-2" data-name="M"/><path class="cls-2" d="M1808.72 229.62a51.67 51.67 0 1 0 51.64 51.66 51.67 51.67 0 0 0-51.64-51.66" id="DOT"/></svg>
