<svg version="1" xmlns="http://www.w3.org/2000/svg" width="1365.333" height="1365.333" viewBox="0 0 1024.000000 1024.000000"><path d="M481.8 152.5c-.1.2-5.9.6-12.8.9-6.9.3-15.9.9-20 1.2-4.1.4-8.7.8-10.2.8-1.6.1-2.8.3-2.8.6s-1.5.5-3.2.6c-3.5 0-12.8 1-19 1.9-2.1.3-5.4.7-7.3 1-1.9.3-5.2.7-7.2 1-5.2.7-9.3 1.4-12.3 2-5.4 1-7.6 1.4-11.5 2-2.2.3-5.6 1-7.5 1.5-1.9.5-5.1 1.1-7 1.4-1.9.3-9.3 2-16.5 3.6-7.1 1.7-13.7 3.3-14.5 3.5-.8.1-3.5.9-6 1.6-6.7 1.9-9 2.4-13 3.3-1.1.3-2.5.8-3 1.1-.5.3-1.9.8-3 1-3.6.7-25.5 7.5-27.2 8.5-1 .6-2.4 1-3.2 1-.7 0-3.5.9-6.2 1.9-2.7 1.1-10.1 3.8-16.4 6.2-6.3 2.3-12.8 4.7-14.5 5.5-1.6.7-5.9 2.5-9.5 3.9-3.6 1.5-8.9 3.8-11.8 5.1-2.9 1.3-5.5 2.4-5.7 2.4-.9 0-42 20.4-48.5 24-3.6 2.1-8.5 4.8-11 6.2-2.5 1.4-6.3 3.6-8.5 4.8-2.2 1.3-6 3.5-8.5 4.9-2.5 1.3-4.7 2.8-5 3.1-.3.4-1.2 1-2 1.3-.8.4-2.8 1.6-4.5 2.7-1.6 1.1-3.7 2.3-4.5 2.7-.8.4-1.9 1.1-2.5 1.5-.5.5-6.8 4.7-14 9.5C85.3 287.4 53.2 310.5 51 313c-.3.3-4.8 3.9-10 8s-10.2 8.2-11.1 9c-.9.8-2.8 2.4-4.1 3.5-5.7 4.7-14.3 12.2-17.2 15-1.7 1.6-4.4 4-6 5.2L-.2 356l19 19.2c10.5 10.6 26.7 27.1 36.1 36.6l17 17.3 4.8-4.3c2.6-2.4 5.3-4.8 5.9-5.3.6-.6 4.2-3.8 8-7.1 8.9-8 25.4-21.6 32.4-26.8 3-2.2 5.7-4.4 6-4.7.9-1 25.3-18.4 28.7-20.4 1.8-1.1 3.3-2.3 3.3-2.8 0-.4.5-.5 1-.2.6.3 1 .3 1-.2 0-.4 2.7-2.4 6-4.3s6-3.8 6-4.3c0-.4.5-.7 1.1-.7.6 0 2.3-.8 3.7-1.9 1.5-1 4.7-2.9 7.2-4.3s7.9-4.5 12-6.8c7.8-4.5 42.3-22 43.4-22 .3 0 3.4-1.3 6.8-2.9 3.5-1.5 9.2-4 12.8-5.4 37.2-14.7 50.9-19.7 54.8-19.9.6-.1 1.2-.6 1.2-1.1 0-.6.3-.7.6-.4.4.3 1.5.2 2.6-.4 1.1-.6 2.7-1.2 3.6-1.4.9-.2 7.3-2 14-4 6.8-2 13.1-3.8 14-4 1-.2 7.3-1.7 14.2-3.3 6.9-1.7 14.2-3.3 16.4-3.6 2.1-.4 4.1-.8 4.5-1.1.4-.2 2.5-.6 4.7-.9 2.1-.3 5.9-.8 8.4-1.2 2.5-.4 5.6-.8 7-.9 1.4-.2 2.5-.4 2.5-.5 0-.2.9-.4 2.1-.5 1.1-.1 3.6-.5 5.5-.8 4.8-.9 11.7-1.7 17.5-2.2 2.7-.2 4.9-.5 4.9-.6 0-.1 1.6-.3 3.5-.4 8.7-.6 16.3-1.6 17.1-2.1.5-.3.9 0 .9.6s.5.8 1 .5c4.2-2.6 79-2.6 104.5 0 11.4 1.2 16.3 1.7 19 2.1 1.7.3 4.6.6 6.5.8 1.9.2 5.1.7 7 1 2 .4 5.4.8 7.5 1.1 2.2.2 4 .4 4 .5 0 .1 1.1.3 2.5.5s3.9.6 5.5 1c1.7.3 4.6.9 6.5 1.1 1.9.3 6 1.2 9 1.9 3 .8 6.6 1.6 8 1.9 5.4 1 16.7 3.6 19.8 4.5 1.8.5 3.5 1 3.7 1 .3.1.6.1.8.2.1 0 .9.2 1.7.4 19.5 4.5 71.6 21.1 84.2 26.9 1.8.8 6 2.6 9.3 3.9 24 9.9 57.7 27.2 79.8 40.9 4.3 2.6 8 4.8 8.2 4.8.4 0 30.1 19.7 32 21.2 7.3 5.8 19.8 14.8 20.5 14.8.4 0 1 .4 1.2.8.2.4 4.8 4.4 10.4 8.9 8.9 7.2 27 22.6 28.4 24.2.3.3 2.4 2.3 4.7 4.5l4.2 3.9 17.8-18.1c9.8-9.9 26-26.4 36.1-36.6l18.3-18.5-4.3-3.8c-2.3-2.1-4.9-4.5-5.8-5.3-.9-.8-4.5-4-8-7s-7.1-6.2-8-7.1c-5.9-5.6-44.7-36.1-51.5-40.4-1.6-1-3.6-2.5-4.4-3.2-1.8-1.9-47-31.7-48.1-31.8-.3 0-1.6-.8-3-1.7-6.8-4.3-26.2-15.2-34-19.1-2.5-1.2-4.7-2.4-5-2.7-1.5-1.5-34.4-16.9-50.2-23.5-7.3-3.1-14.2-6-15.3-6.5-1.9-.9-13.4-5.3-14.5-5.5-.3-.1-1.8-.7-3.5-1.4-3.4-1.4-16.5-6.1-18-6.5-.5-.1-6.8-2.2-14-4.5-7.1-2.3-13.7-4.4-14.6-4.6-.9-.2-4.9-1.3-9-2.4-11.6-3.3-19.3-5.4-24.4-6.6-.5-.1-2.1-.5-3.5-.8-1.4-.4-3.6-.9-5-1.1-1.4-.2-4.7-1-7.5-1.6-5.8-1.4-4.9-1.2-22.2-4.4-7.3-1.4-15.1-2.8-17.5-3.1-4.8-.7-8.3-1.3-8.3-1.5 0 0-2.2-.3-5-.5-2.7-.3-6.3-.7-8-.9-6.7-1-11.3-1.6-16.5-2.1-3-.3-7.1-.7-9-.9-3.3-.4-13.4-1.3-26-2.2-7-.6-77.7-1.4-78.2-.9z"/><path d="M489.7 429.7c-.2.1-5.1.5-11.1.8-5.9.4-11.5.8-12.4 1-.9.1-4.6.6-8.2 1-3.6.3-9.4 1.1-13 1.7-3.6.5-7.8 1.2-9.5 1.4-1.6.3-5.3.9-8.1 1.5-2.8.5-6.1 1.2-7.5 1.4-1.3.3-3.5.7-4.9 1-1.4.4-3.4.8-4.5 1-4.9 1.1-6.2 1.5-9.4 2.4-1.8.6-3.6 1-4 .9-.3-.1-1.3.1-2.1.4-1.3.5-10.7 3.1-12 3.3-.3.1-5.2 1.6-11 3.5s-10.7 3.4-11 3.5c-.3.1-1.2.4-2 .8-.8.3-4.9 1.8-9 3.3-24.2 8.8-56.8 24-71.5 33.2-2.7 1.8-6.1 3.7-7.5 4.4-3.6 1.7-19.4 12.1-20.2 13.3-.4.5-.8.6-.8.1s-1 0-2.2 1.1c-1.3 1.1-5.4 4.1-9.3 6.8-12 8.4-28.2 21.3-39 31l-4.5 4 36.5 36.4 36.5 36.4 2.3-2c1.2-1.1 3.6-3.2 5.2-4.7 5.9-5.5 28.2-22.5 37-28.3 10-6.6 26-16.3 26.8-16.3.4 0 2.8-1.3 5.5-2.9 2.7-1.6 6-3.2 7.3-3.6 1.3-.4 2.6-1.1 2.9-1.5.5-.7 27.1-12 29.4-12.5.6-.1 2.3-.7 3.7-1.3 2.9-1.2 24.9-8.1 27.9-8.8 4.6-1 5.7-1.2 9.5-2.2 4.3-1.2 5.4-1.4 18.5-3.7 4.7-.9 9.2-1.7 10-2 .8-.2 4.4-.7 8-1 3.6-.3 8-.9 9.9-1.1 1.9-.3 6.2-.7 9.6-.8 3.4-.2 6.6-.5 7.1-.8 1.6-.9 46.9-.2 48.3.7 1 .6 1.2.4.6-.5-.5-.9-.4-1.1.4-.6.6.4 3.3.9 5.9 1.1 5 .4 12.8 1.3 17.7 2 14.4 2 17.6 2.5 29.5 5.1 1.4.3 3.6.7 5 1 4.2.8 4.5.9 5.8 1.7.6.5 1.2.6 1.2.3s2.3.2 5.2 1c2.8.9 5.9 1.8 6.7 2 15.7 3.9 39.4 13.1 58.2 22.6 6.4 3.2 12.1 5.8 12.7 5.8.5 0 1.3.7 1.6 1.6.4.9.9 1.4 1.3 1.1.3-.4 1.8.2 3.2 1.2 1.4 1 4.2 2.7 6.1 3.8 3.9 2.1 21.2 13.4 22 14.3.3.3 2.7 2.2 5.4 4.1 2.7 1.8 6.1 4.5 7.5 5.8 1.4 1.3 3.7 3.1 5.1 4 2.4 1.5 6.6 5.1 11.4 9.6 1.2 1.1 3.2 2.9 4.4 3.9l2.2 1.9 36-36c19.8-19.9 36-36.5 36-37 0-.9-1.4-2.3-9.1-8.8-7.5-6.3-11.7-9.8-21.9-17.4-5.8-4.4-11.3-8.7-12.2-9.5-1-.9-2.2-1.6-2.6-1.6-.4 0-2.3-1.3-4.2-3-1.9-1.6-3.8-2.9-4.3-3-.4 0-3-1.6-5.7-3.5s-5.4-3.5-6-3.5c-.5 0-1-.5-1-1 0-.6-.5-1-1.2-1-.6 0-2.6-1.1-4.4-2.5-1.8-1.4-3.5-2.5-3.7-2.5-.2 0-4.8-2.5-10.2-5.5-14.3-8.1-36-18.5-52-25-7.7-3-14.9-6-16-6.5-6.9-3-47.1-14.9-56-16.5-1.1-.2-3.1-.7-4.5-1-1.4-.3-3.6-.8-5-1.1-1.4-.3-5.6-1.1-9.5-1.9-3.8-.8-8.3-1.6-10-1.9-9.9-1.5-17.7-2.6-22.6-3.1-3.1-.3-6.5-.7-7.5-.9-7-1.4-67.6-3.1-68.7-1.9zM495.7 705.7c-.1 0-2.4.4-5.2.7-11.3 1.4-16.7 2.4-23.5 4.2-3 .8-6.4 1.7-7.4 1.9-6.8 1.6-20.8 7-31.1 12.2-6.7 3.4-21.5 12.1-22.5 13.3-.3.3-2.1 1.7-4 3-1.9 1.4-4.2 3-5 3.7-.8.6-2.5 2-3.7 3l-2.3 1.8 60.5 60.4 60.5 60.5 60.5-60.5 60.5-60.4-2.3-1.8c-1.2-1-3-2.5-4-3.3-3.1-2.6-15.1-11-16.7-11.7-.8-.4-3.1-1.7-5-2.8-11.7-7.1-34.2-16.4-44.5-18.5-.5-.1-2.8-.6-5-1.2s-5.6-1.3-7.5-1.6c-1.9-.3-4.4-.7-5.5-1-5.3-1.1-19.4-2-32.3-2-7.9-.1-14.4 0-14.5.1z"/></svg>