<svg version="1.1" id="Layer_2" xmlns="http://www.w3.org/2000/svg" xmlns:xlink="http://www.w3.org/1999/xlink" x="0px" y="0px"
	 width="55px" height="53px" viewBox="0 0 55 53" style="enable-background:new 0 0 55 53;" xml:space="preserve">
<style type="text/css">
	.st0{fill-rule:evenodd;clip-rule:evenodd;fill:#022B5A;}
	.st1{fill:#022B5A;}
</style>
<path class="st0" d="M8.2,21.8c0-7.9,4.8-15.6,13.1-15.6c8.2,0,13,7.7,13,15.6c0,7.4-4,15.6-13,15.6C12.2,37.4,8.2,29.3,8.2,21.8
	 M0,21.8c0,11.9,8.7,21.8,21.3,21.8c12.5,0,21.2-9.9,21.2-21.8C42.4,9.2,33.9,0,21.3,0C8.5,0,0,9.2,0,21.8"/>
<path class="st1" d="M53.9,53v-2.9h-7.5c3-3,7-6.6,7-10.5c0-3.6-2.3-5.4-5.8-5.4c-1.9,0-3.8,0.5-5.5,1.3l0.3,3.1
	c1.2-0.8,2.7-1.5,4.3-1.5c1.5,0,3,0.8,3,2.5c0,3.4-6.3,8.6-8,10.3V53H53.9z"/>
</svg>
